<svg xmlns="http://www.w3.org/2000/svg" width="2105" height="2016" fill="none"><path fill="#FFAFF3" d="M842.03 129.18c28.08-79.6 132.5-98 186.12-32.82l281.02 341.66a188.45 188.45 0 0 0 140.97 68.66l442.64 10.77c84.51 2.05 134.14 95.5 88.67 166.53l-238.58 372.67a188.09 188.09 0 0 0-21.87 155.22l126.34 423.83c24.08 80.75-49.46 157.01-131.31 135.74l-428.48-111.33a188.54 188.54 0 0 0-154.44 27.23l-364.55 251.17c-69.65 47.97-164.83 1.47-169.83-82.65l-26.23-441.48a188.14 188.14 0 0 0-73.63-138.37l-351.67-268.6c-67.02-51.2-52.34-155.98 26.37-186.82l412.26-161.51a188.44 188.44 0 0 0 108.98-112.73l147.22-417.17Z"/><path fill="#151515" d="M918.91 20.39c-49.94 8.8-95.59 41.96-114.49 95.51L657.19 533.07a148.4 148.4 0 0 1-85.86 88.8L159.04 783.4C53.25 824.85 32.8 970.37 122.98 1039.24l351.66 268.57a147.99 147.99 0 0 1 57.99 108.95l26.2 441.47c6.73 113.26 138.84 177.69 232.46 113.21v-.01l364.58-251.17v-.01a148.5 148.5 0 0 1 121.68-21.45l428.49 111.31c110.02 28.59 212.13-77.15 179.71-185.89v.01l-126.33-423.82a148.08 148.08 0 0 1 17.23-122.21v-.01l238.6-372.68h-.01c61.2-95.58-7.78-225.31-121.37-228.08l-442.66-10.75a148.36 148.36 0 0 1-111.04-54.07L1059.15 70.96c-36.07-43.86-90.3-59.4-140.25-50.6m13.44 76.25c22.7-4 47.48 3.84 65.02 25.17l281.02 341.64a228.51 228.51 0 0 0 170.88 83.23l442.66 10.76c55.43 1.34 85.71 58.49 55.94 104.97l-238.59 372.68a228.23 228.23 0 0 0-26.53 188.2l126.34 423.81c15.73 52.78-29.25 99.55-82.93 85.61l-428.49-111.32a228.63 228.63 0 0 0-187.2 33.02l-364.58 251.17c-45.67 31.47-103.93 2.9-107.2-52.07l-26.21-441.47a228.24 228.24 0 0 0-89.28-167.79L171.52 975.65c-43.86-33.5-34.94-97.55 16.68-117.78L600.5 696.34A228.55 228.55 0 0 0 732.6 559.67L879.84 142.5c9.2-26.04 29.8-41.88 52.5-45.88"/><path fill="#151515" d="M790.63 1144.08a78.58 78.58 0 1 0-27.3-154.77 78.58 78.58 0 0 0 27.3 154.77ZM1423.7 1032.45a78.56 78.56 0 0 0 63.73-91.02 78.58 78.58 0 0 0-154.76 27.3 78.57 78.57 0 0 0 91.03 63.72ZM1042.09 1126.57a40.11 40.11 0 0 0-22.17 21.11 40.04 40.04 0 0 0-.75 30.61 104.11 104.11 0 0 0 55.08 57.78l.01.01a104.18 104.18 0 0 0 39.68 8.89h.03c13.68.32 27.29-2.05 40.06-6.98h.01a104.14 104.14 0 0 0 34.36-21.78h.01v-.01a104.22 104.22 0 0 0 32.3-73 40.02 40.02 0 0 0-39.05-40.92 39.96 39.96 0 0 0-40.92 39.05c-.08 3.17-.78 6.3-2.07 9.2v.01l-.01.02a24.11 24.11 0 0 1-13.43 12.8l-.02.01a24.3 24.3 0 0 1-18.57-.45h-.02l-.01-.01a24.33 24.33 0 0 1-7.73-5.43v-.01a24.24 24.24 0 0 1-5.07-8 39.97 39.97 0 0 0-51.72-22.9Z"/></svg>
