<svg xmlns="http://www.w3.org/2000/svg" xml:space="preserve" viewBox="0 0 996 472"><path d="M92 118v48H65V41H3V14h151v27H92v77zM268 135V77c0-5-2-7-6-7h-58c-5 0-6 2-6 6v90h-27V3h27v40h66c20 0 32 16 31 32v91h-27v-31zM435 160v6h-91c-21 1-34-15-33-33V74c0-18 12-31 30-31h65c17 0 29 13 29 30v45h-97v17c0 4 3 4 6 4h91v21m-77-89h-15c-2 0-4 2-5 3v20h70V76c0-5-2-6-6-6l-44 1zM91 212h155v47H141v212H93V260H2v-48h89zM330 309h-4c-6 0-7 1-7 8v154h-47V313c0-28 22-50 51-51h114v47H330zM465 215v-21h46v47h-46v-26zM465 332v-69h46v208h-46V332zM546 239v-45h46v68h115a50 50 0 0 1 50 51v107c1 25-19 51-49 51H547l-1-1V239m165 147v-69c0-7-2-8-8-8H600c-6 0-8 1-8 7v101c0 6 1 7 7 7h105c5 0 7-1 7-7v-31zM995 424l1 46-161 1c-30 0-51-27-51-51V313c0-26 23-51 51-51h110c27 0 49 21 51 46v82H831v29l5 5h159m-52-115H838c-4 0-7 1-7 5v34h119l-1-34c0-3-2-5-6-5z"/></svg>